<svg version="1.1" id="Layer_1" xmlns="http://www.w3.org/2000/svg" x="0" y="0" viewBox="0 0 398 293" xml:space="preserve"><style>.st2{fill:#222}</style><path d="M70.18 47.896v-30.8h257.6v30.8m-257.6 195.8v30.7h257.6v-30.7" fill="#222" fill-opacity="0" stroke="#222" stroke-width="10" stroke-miterlimit="4.682"/><path fill="#222" fill-opacity="0" d="M-104.8-45.3h395.7v196h-395.7z" transform="translate(105.78 93.196)"/><path class="st2" d="M-36.1 13.3H-.8v57.1c-8.9 2.9-17.4 5-25.5 6.3-8.2 1.3-14.7 2.1-20.3 2.1-18.2 0-32.4-4.7-42.6-14.2-10.3-9.7-15.5-24.2-15.5-43.9 0-20 5.5-35 16.3-45s26-15 45.8-15c10.3 0 22.6 1.6 37.1 4.7 0 2.6-.3 6.6-.8 11.8s-1.1 8.9-1.6 11.1h-7.4c-8.7-.3-15.8-.5-20.5-.5-14.7 0-22.9.8-24.2 2.6C-62.2-7-63.7-3-64.5 2.2s-1.3 10.5-1.3 15.5c0 8.9 1.1 15.8 2.9 20.8 2.1 5 5 8.4 9.2 10.5s9.7 2.9 16.8 2.9h.8V13.3zM92-38.3c10.8 0 20 1.1 27.4 2.9 7.4 2.1 13.4 5.8 17.9 11.6 4.5 5.8 6.8 13.7 6.8 24.2 0 4.7-.8 9.5-2.1 14.2-1.3 4.7-3.2 9.2-5.3 12.6-2.1 3.7-3.9 6.1-5.5 7.1-1.8 1.3-6.1 2.4-12.4 3.2-6.3.8-13.9 1.1-22.6 1.1-3.2 0-7.9-.3-14.2-.5v38.2H46V-37.8c14.2-.2 29.5-.5 46-.5zm15 51.6c1.3-1.8 2.1-5.3 2.1-10.5 0-6.8-1.3-11.6-4.2-14.5-2.9-2.9-7.9-4.2-15-4.2-2.4 0-5 .3-7.9.5v30.5c1.3.3 3.9.3 7.9.3 10.3 0 16.1-.8 17.1-2.1zm174.2 25.5l9.7 37.6H253l-6.8-28.9c-.3-1.1-.8-2.9-1.3-5.5s-1.3-4.5-2.1-5.8c-.8-1.3-1.8-2.1-3.4-2.6-3.7.3-9.2.3-16.3.3v42.4h-36V-37c16.1-1.3 31.3-1.8 45.3-1.8 12.6 0 22.9 1.1 30.8 3.2 7.9 2.1 13.7 5.5 17.6 10.5s5.8 11.8 5.8 20.5c0 8.2-1.8 14.5-5.5 19.2-3.7 4.5-9.7 7.4-17.9 8.4v1.3c4.7.3 8.7 1.8 11.6 4.5 3.3 2.6 5.4 6 6.4 10zm-58.1-27.4c1.3.3 3.4.3 7.1.3 10.3 0 16.3-.8 17.9-2.6 1.6-1.6 2.4-5.3 2.4-11.3 0-5.5-1.3-9.2-4.2-11.3s-7.6-2.9-14.2-2.9c-1.6 0-4.5.3-8.9.5v27.3z" transform="translate(105.78 96.196)"/><path class="st2" d="M-89.4 61.2zm0 14.7v-.8c0-2.4 0-4.5.3-6.1s.5-3.2 1.3-4.2c.5-1.1 1.3-1.8 2.4-2.4 1.1-.5 2.4-1.1 3.9-1.1 1.6-.3 3.4-.3 5.5-.3h6.8c2.9 0 5.3 0 6.8.3 1.8.3 3.2.5 4.2 1.3 1.1.5 1.6 1.6 2.1 2.6.3 1.1.5 2.6.5 4.7H-59c0-1.3-.3-2.6-.5-3.4-.3-.8-.8-1.3-1.3-1.8-1.1-.3-1.8-.5-3.2-.5h-16.5c-1.1 0-2.1.3-2.9.8-.8.5-1.3 1.1-1.6 1.8s-.5 1.8-.8 3.2c-.3 1.3-.3 3.2-.3 5.3v.8c0 2.1 0 3.7.3 5s.5 2.4.8 3.2c.3.8 1.1 1.3 1.6 1.8.8.5 1.6.8 2.9.8 1.3 0 2.6.3 4.5.3h7.9c2.1 0 3.7 0 4.7-.3 1.3-.3 2.1-.5 2.9-1.1.5-.5 1.1-1.3 1.3-2.4.3-1.1.3-2.6.3-4.5V78h-13.2v-3.2h16.8v3.9c0 2.4-.3 4.2-.5 5.8-.5 1.6-1.1 2.6-2.1 3.4-1.1.8-2.1 1.3-3.9 1.6-1.6.3-3.7.5-6.1.5h-7.9c-2.6 0-5-.3-6.6-.5-1.8-.3-3.2-1.1-4.2-2.1-1.1-1.1-1.6-2.4-2.1-4.2-.5-1.8-.7-4.1-.7-7.3zm46.3 13.7h-3.4V68.8h3.4v2.9c.3-.5.8-1.1 1.1-1.6.3-.5.8-.8 1.6-1.1.5-.3 1.6-.5 2.6-.5 1.1 0 2.6-.3 4.2-.3v2.9c-2.4 0-4.2 0-5.5.3-1.3.3-2.1.5-2.9.8-.5.5-.8 1.1-1.1 1.6 0 .8-.3 1.6-.3 2.6v13.2h.3zm28.9.2c-2.4 0-4.2 0-6.1-.3-1.6-.3-2.9-.8-3.9-1.3-1.1-.8-1.8-1.8-2.1-3.4-.5-1.6-.8-3.4-.8-5.8s.3-4.2.8-5.8c.5-1.3 1.1-2.4 2.1-3.2 1.1-.8 2.4-1.3 3.9-1.6 1.6-.3 3.7-.3 6.1-.3 2.4 0 4.2 0 5.8.3 1.6.3 2.9.8 3.9 1.6s1.6 1.8 2.1 3.2c.5 1.3.8 3.4.8 5.8s-.3 4.5-.8 5.8c-.5 1.6-1.1 2.6-2.1 3.4-1.1.8-2.4 1.3-3.9 1.3-1.3.3-3.4.3-5.8.3zm9.5-10.7c0-1.8 0-3.2-.3-4.2s-.5-1.9-1-2.4-1.6-.8-2.9-1.1-2.9-.3-5-.3-3.9 0-5 .3c-1.3.3-2.1.5-2.6 1.1s-1.1 1.3-1.1 2.4c-.3 1.1-.3 2.4-.3 4.2 0 1.8 0 3.2.3 4.2.3 1.1.5 1.8 1.1 2.4.5.5 1.6.8 2.6 1.1 1.3.3 2.9.3 5 .3s3.9 0 5-.3c1.3-.3 2.1-.5 2.9-1.1.5-.5 1.1-1.3 1.1-2.4-.1-1.1.2-2.4.2-4.2zm20.8 10.5h-4.7L3.5 68.8h3.9l6.3 17.9 6.8-17.9H24l6.8 17.9 6.3-17.9H41l-7.9 20.8h-4.7l-6.3-16.8-6 16.8zm36.8 0h-3.4V61.7h18.4c2.6 0 5 .3 6.6.5 1.6.3 2.9.8 3.7 1.3s1.3 1.6 1.8 2.4c.3 1.1.5 2.4.5 3.9v.8c0 1.6-.3 2.9-.5 3.9s-.8 1.8-1.8 2.4-2.1 1.1-3.9 1.3c-1.6.3-3.9.5-6.6.5h-15v10.8h.2zm24-19v-.8c0-1.1 0-2.1-.3-2.6-.3-.8-.8-1.3-1.3-1.6-.5-.3-1.6-.5-2.9-.8-1.3 0-2.9-.3-5.3-.3H52.7v11.1h14.5c2.1 0 3.9 0 5.3-.3s2.4-.3 2.9-.8c.5-.3 1.1-.8 1.3-1.6.2-.4.2-1.2.2-2.3zm14.2 19h-3.4V68.8h3.4v2.9c.3-.5.8-1.1 1.1-1.6.3-.5.8-.8 1.6-1.1.5-.3 1.6-.5 2.6-.5 1.1 0 2.6-.3 4.2-.3v2.9c-2.4 0-4.2 0-5.5.3s-2.1.5-2.9.8c-.5.5-.8 1.1-1.1 1.6 0 .8-.3 1.6-.3 2.6v13.2h.3zm29.2.2c-2.4 0-4.2 0-6.1-.3-1.6-.3-2.9-.8-3.9-1.3-1.1-.8-1.8-1.8-2.1-3.4-.5-1.6-.8-3.4-.8-5.8s.3-4.2.8-5.8c.5-1.3 1.1-2.4 2.1-3.2 1.1-.8 2.4-1.3 3.9-1.6s3.7-.3 6.1-.3c2.4 0 4.2 0 5.8.3 1.6.3 2.9.8 3.9 1.6 1.1.8 1.6 1.8 2.1 3.2.5 1.3.8 3.4.8 5.8s-.3 4.5-.8 5.8c-.5 1.6-1.1 2.6-2.1 3.4-1.1.8-2.4 1.3-3.9 1.3-1.6.3-3.7.3-5.8.3zm9.2-10.7c0-1.8 0-3.2-.3-4.2s-.5-1.8-1.1-2.4c-.5-.5-1.6-.8-2.9-1.1s-2.9-.3-5-.3-3.9 0-5 .3c-1.3.3-2.1.5-2.6 1.1-.5.5-1.1 1.3-1.1 2.4-.3 1.1-.3 2.4-.3 4.2 0 1.8 0 3.2.3 4.2.3 1.1.5 1.8 1.1 2.4.5.5 1.6.8 2.6 1.1 1.3.3 2.9.3 5 .3s3.9 0 5-.3c1.3-.3 2.1-.5 2.9-1.1.5-.5 1.1-1.3 1.1-2.4 0-1.1.3-2.4.3-4.2zm25.3 10.5V61.7h18.4c2.6 0 5 0 6.6.3 1.6.3 2.9.5 3.7 1.3.8.5 1.3 1.3 1.8 2.4.3 1.1.5 2.4.5 3.9v.8c0 1.3-.3 2.6-.5 3.7-.3 1.1-1.1 1.8-1.8 2.6-1.1.5-2.4 1.1-4.5 1.3l6.1 11.6h-3.4l-5.8-11.3h-17.4v11.3h-3.7zm3.4-24.8v10.5h15.3c2.1 0 3.7 0 4.7-.3s2.1-.3 2.6-.8c.5-.3.8-.8 1.1-1.6.3-.5.3-1.6.3-2.4v-.8c0-1.1 0-2.1-.3-2.6s-.8-1.1-1.3-1.6c-.5-.3-1.6-.5-2.9-.5-1.3 0-2.9-.3-5.3-.3h-14.2v.4zm39.7 24.8h-3.4V69.8h3.4v19.8zm0-24.5h-3.4v-3.4h3.4v3.4zm19.5 24.7c-2.6 0-4.5 0-6.1-.3-1.6-.3-2.6-.5-3.4-1.1-.8-.5-1.3-1.1-1.6-1.8-.3-.8-.5-1.8-.5-3.4h3.4c0 .8 0 1.3.3 1.8 0 .5.5.8 1.1 1.1s1.3.5 2.4.5h9.7c1.3 0 2.1-.3 2.6-.5.5-.3.8-.5 1.1-1.1 0-.5.3-1.1.3-1.8 0-1.1 0-1.6-.3-2.1s-.5-.8-1.3-1.1c-.5-.3-1.6-.3-2.9-.3H214c-2.1 0-3.7-.3-4.7-.5-1.1-.3-1.8-1.1-2.4-1.8s-.5-2.1-.5-3.7.3-2.6.8-3.4c.5-.8 1.1-1.3 2.1-1.6 1.1-.3 2.1-.5 3.7-.5h5.5c2.6 0 4.5 0 6.1.3 1.6.3 2.6.5 3.4.8.8.5 1.3 1.1 1.6 1.8s.3 1.8.3 3.2h-3.4c0-.8 0-1.3-.3-1.8s-.5-.8-.8-1.1c-.5-.3-1.3-.3-2.4-.5h-9.5c-1.3 0-2.1.3-2.6.3-.5.3-.8.5-1.1.8 0 .3-.3 1.1-.3 1.6v1.6c0 .5.3.8.5 1.1.3.3.8.3 1.6.5h10.3c2.1 0 3.7.3 5 .5 1.1.3 1.8 1.1 2.4 1.8.3.8.5 2.1.5 3.9 0 1.6-.3 2.6-.5 3.7-.5.8-1.1 1.6-2.1 1.8-1.1.5-2.4.8-3.9.8-2 .5-3.8.5-5.9.5zm40.5-6.5h3.2c0 1.6-.3 2.6-.8 3.7-.5.8-1.1 1.6-2.1 1.8-1.1.3-2.1.8-3.7.8s-3.2.3-5.3.3c-2.4 0-4.2 0-5.8-.3-1.6-.3-2.9-.8-3.9-1.3-1.1-.8-1.6-1.8-2.1-3.4-.5-1.6-.8-3.4-.8-5.8s.3-4.2.5-5.8c.5-1.3 1.1-2.4 2.1-3.2 1.1-.8 2.4-1.3 3.9-1.6s3.7-.3 5.8-.3c2.6 0 5 .3 6.6.5 1.8.3 2.9 1.1 3.9 2.1.8 1.1 1.3 2.6 1.3 4.7V80H240c0 1.6 0 2.9.3 3.7.3 1.1.5 1.6 1.3 2.1.5.5 1.6.8 2.9 1.1 1.3.3 2.9.3 4.7.3h4.5c1.1 0 2.1-.3 2.6-.5.5-.3 1.1-.5 1.1-1.1.2-.8.5-1.5.5-2.3zm-8.7-12.1c-1.8 0-3.4 0-4.7.3s-2.1.5-2.6.8c-.5.5-1.1 1.1-1.3 1.8-.3.8-.3 1.8-.3 3.2h17.6v-1.8c0-.8 0-1.6-.3-2.1s-.5-1.1-1.1-1.3c-.5-.3-1.3-.5-2.6-.8-1.3-.1-2.8-.1-4.7-.1z" transform="translate(113.1 144.426)"/></svg>